<?xml version="1.0" encoding="UTF-8"?>
<svg id="katman_1" data-name="katman 1" xmlns="http://www.w3.org/2000/svg" xmlns:xlink="http://www.w3.org/1999/xlink" viewBox="0 0 999 999">
  <defs>
    <style>
      .cls-1 {
        fill: url(#Adsız_degrade_18-13);
      }

      .cls-2 {
        fill: url(#Adsız_degrade_18);
      }

      .cls-3 {
        fill: #aafc40;
      }

      .cls-4 {
        fill: url(#Adsız_degrade_18-9);
      }

      .cls-5 {
        fill: url(#Adsız_degrade_18-4);
      }

      .cls-6 {
        fill: url(#Adsız_degrade_19);
      }

      .cls-7 {
        fill: #221f32;
      }

      .cls-8 {
        fill: url(#Adsız_degrade_18-10);
      }

      .cls-9 {
        fill: url(#Adsız_degrade_18-8);
      }

      .cls-10 {
        fill: url(#Adsız_degrade_18-14);
      }

      .cls-11 {
        fill: url(#Adsız_degrade_18-20);
      }

      .cls-12 {
        fill: url(#Adsız_degrade_18-5);
      }

      .cls-13 {
        fill: url(#Adsız_degrade_18-6);
      }

      .cls-14 {
        fill: url(#Adsız_degrade_18-2);
      }

      .cls-15 {
        fill: url(#Adsız_degrade_18-12);
      }

      .cls-16 {
        fill: url(#Adsız_degrade_18-11);
      }

      .cls-17 {
        fill: url(#Adsız_degrade_18-18);
      }

      .cls-18 {
        fill: url(#Adsız_degrade_18-7);
      }

      .cls-19 {
        fill: url(#Adsız_degrade_18-16);
      }

      .cls-20 {
        fill: url(#Adsız_degrade_18-17);
      }

      .cls-21 {
        fill: url(#Adsız_degrade_18-19);
      }

      .cls-22 {
        fill: url(#Adsız_degrade_18-3);
      }

      .cls-23 {
        fill: url(#Adsız_degrade_18-15);
      }
    </style>
    <linearGradient id="Adsız_degrade_18" data-name="Adsız degrade 18" x1="366.51" y1="229.67" x2="465.35" y2="229.67" gradientUnits="userSpaceOnUse">
      <stop offset="0" stop-color="#a5ff9b"/>
      <stop offset=".51" stop-color="#0dc6fe"/>
      <stop offset="1" stop-color="#0067f6"/>
    </linearGradient>
    <linearGradient id="Adsız_degrade_18-2" data-name="Adsız degrade 18" x1="683.03" y1="195.34" x2="769.89" y2="364.56" xlink:href="#Adsız_degrade_18"/>
    <linearGradient id="Adsız_degrade_18-3" data-name="Adsız degrade 18" x1="692.47" y1="337.74" x2="806.96" y2="337.74" xlink:href="#Adsız_degrade_18"/>
    <linearGradient id="Adsız_degrade_18-4" data-name="Adsız degrade 18" x1="715.1" y1="358.09" x2="800.94" y2="358.09" xlink:href="#Adsız_degrade_18"/>
    <linearGradient id="Adsız_degrade_18-5" data-name="Adsız degrade 18" x1="504.74" y1="493.7" x2="563.36" y2="493.7" xlink:href="#Adsız_degrade_18"/>
    <linearGradient id="Adsız_degrade_18-6" data-name="Adsız degrade 18" x1="384.15" y1="493.22" x2="522.38" y2="493.22" xlink:href="#Adsız_degrade_18"/>
    <linearGradient id="Adsız_degrade_18-7" data-name="Adsız degrade 18" x1="353.2" y1="620.68" x2="549.38" y2="529.33" xlink:href="#Adsız_degrade_18"/>
    <linearGradient id="Adsız_degrade_18-8" data-name="Adsız degrade 18" x1="184.47" y1="442.71" x2="314.76" y2="667.34" xlink:href="#Adsız_degrade_18"/>
    <linearGradient id="Adsız_degrade_19" data-name="Adsız degrade 19" x1="433.54" y1="645.6" x2="1075.99" y2="275.7" gradientUnits="userSpaceOnUse">
      <stop offset="0" stop-color="#aafc40"/>
      <stop offset=".51" stop-color="#0dc6fe"/>
      <stop offset="1" stop-color="#0067f6"/>
    </linearGradient>
    <linearGradient id="Adsız_degrade_18-9" data-name="Adsız degrade 18" x1="294.59" y1="640.43" x2="399.41" y2="871.05" xlink:href="#Adsız_degrade_18"/>
    <linearGradient id="Adsız_degrade_18-10" data-name="Adsız degrade 18" x1="230.15" y1="617.68" x2="810.48" y2="617.68" xlink:href="#Adsız_degrade_18"/>
    <linearGradient id="Adsız_degrade_18-11" data-name="Adsız degrade 18" x1="97.89" y1="974.14" x2="860.14" y2="485.94" xlink:href="#Adsız_degrade_18"/>
    <linearGradient id="Adsız_degrade_18-12" data-name="Adsız degrade 18" x1="892.16" y1="367.5" x2="513.28" y2="755.37" xlink:href="#Adsız_degrade_18"/>
    <linearGradient id="Adsız_degrade_18-13" data-name="Adsız degrade 18" x1="419.75" y1="811.04" x2="582.98" y2="730.18" xlink:href="#Adsız_degrade_18"/>
    <linearGradient id="Adsız_degrade_18-14" data-name="Adsız degrade 18" x1="462.87" y1="795.55" x2="690.49" y2="671.26" xlink:href="#Adsız_degrade_18"/>
    <linearGradient id="Adsız_degrade_18-15" data-name="Adsız degrade 18" x1="374.94" y1="841.73" x2="777.78" y2="635.07" xlink:href="#Adsız_degrade_18"/>
    <linearGradient id="Adsız_degrade_18-16" data-name="Adsız degrade 18" x1="719.31" y1="708.65" x2="828.61" y2="605.33" xlink:href="#Adsız_degrade_18"/>
    <linearGradient id="Adsız_degrade_18-17" data-name="Adsız degrade 18" x1="414.14" y1="372.15" x2="440.98" y2="372.15" xlink:href="#Adsız_degrade_18"/>
    <linearGradient id="Adsız_degrade_18-18" data-name="Adsız degrade 18" x1="388.77" y1="311.76" x2="676.3" y2="374.65" xlink:href="#Adsız_degrade_18"/>
    <linearGradient id="Adsız_degrade_18-19" data-name="Adsız degrade 18" x1="414.14" y1="372.15" x2="440.98" y2="372.15" xlink:href="#Adsız_degrade_18"/>
    <linearGradient id="Adsız_degrade_18-20" data-name="Adsız degrade 18" x1="332.97" y1="334.65" x2="572.58" y2="429" xlink:href="#Adsız_degrade_18"/>
  </defs>
  <rect class="cls-7" width="999" height="999"/>
  <g>
    <path class="cls-2" d="M414.14,266.19s-6.03-16.47-14.52-23.46-13.31-13.64-13.31-13.64c0,0-1.5,24.46,9.32,46.26l-13.98,8.32s-8.9-10.65-11.9-33.11c-3-22.46-3.24-74.88-3.24-74.88,0,0,88.6,52.41,92.85,58.65s5.99,15.23,5.99,15.23l-51.21,16.64Z"/>
    <polygon class="cls-14" points="651.87 302.46 789.65 235.24 791.31 259.87 670.84 320.43 651.87 302.46"/>
    <path class="cls-22" d="M806.96,292.15s-1.54,4.99-6.01,13.08c-9.78,17.69-33.56,50.25-85.84,78.11,0,0-4-12.98-22.63-33.95l114.48-57.24Z"/>
    <path class="cls-5" d="M800.94,305.23c-14,74.64-75.19,105.72-75.19,105.72-3.66-24.29-10.65-27.62-10.65-27.62,52.28-27.86,76.06-60.41,85.84-78.11Z"/>
    <path class="cls-12" d="M521.35,527.91c4.82-30.53-8.41-56.04-16.61-68.41,20.97,7.58,41.51,22.33,58.61,48.38l-42.01,20.03Z"/>
    <path class="cls-13" d="M521.35,527.91h0s-12.41,5.92-12.41,5.92c0,0-31.45-63.89-124.8-60.9,0,0,61.99-34.65,120.59-13.44h0c8.2,12.38,21.43,37.89,16.61,68.42Z"/>
    <path class="cls-18" d="M484.07,545.65s-149.75,76.54-182.36,94.18c-32.01,17.3-70.09,77.86-71.53,80.13.89-2.57,30.13-85.65,95.99-118.57,56.75-28.37,123.44-65.73,142.35-76.41,9.84,10.51,15.55,20.67,15.55,20.67Z"/>
    <path class="cls-3" d="M468.51,524.98c-18.92,10.67-85.61,48.04-142.35,76.41-65.86,32.91-95.1,116-95.99,118.57,0,.02-.02.04-.02.05,0,0,0,.02,0,.02,13.81-126.96,73.05-150.58,73.05-150.58l131.95-66.06c13.5,3.38,24.94,12.62,33.36,21.6Z"/>
    <polygon class="cls-9" points="176.4 581.92 317.67 513.53 326.16 531.34 184.39 601.39 176.4 581.92"/>
    <path class="cls-6" d="M810.48,402.12c-33.45,68.62-95.38,97.18-95.38,97.18,0,0-272.39,136.28-357.99,180.46-84.95,43.83-126.32,151.8-126.96,153.48,0,0,0,.02,0,.02,0,0,13.4-138.52,105.5-183.45,92.1-44.93,368.4-181.95,368.4-181.95,0,0,93.6-50.32,106.33-109.77,0,0,2.87,18.89.12,44.04Z"/>
    <polygon class="cls-4" points="302.7 771.86 389.55 724.69 374.58 756.14 307.19 792.83 302.7 771.86"/>
    <path class="cls-8" d="M810.48,402.12c-3.52,32.3-16.3,74.93-56.28,101.26l-373.63,189.86s-85.19,29.94-150.42,140c.64-1.68,42.01-109.64,126.96-153.48,85.61-44.18,357.99-180.46,357.99-180.46,0,0,61.93-28.55,95.38-97.18Z"/>
    <path class="cls-16" d="M806.96,482.09c-8.37,33.9-72.01,95.38-88.48,105.86-9.13,5.81-45.98,26.79-91.1,50.38-36.31,18.97-77.95,39.64-114.78,55.45-81.93,35.16-122.41,149.66-123.04,151.44-.01,0-.01.02-.01.02,0,0-2.58-121.31,88.56-172.22,91.15-50.92,222.93-107.08,249.14-122.8,1.54-.93,3.17-1.94,4.86-3.02,26.84-17.22,69.51-52.44,74.84-65.12Z"/>
    <path class="cls-15" d="M734.94,607.44c-8.11,8.65-17.78,15.71-28.48,20.84l-150.67,72.33-40.44,19.41s-70.38,34.6-125.78,125.2c.63-1.79,41.11-116.28,123.04-151.44,36.82-15.81,78.47-36.47,114.78-55.45,45.11-23.6,81.97-44.58,91.1-50.38,16.47-10.48,80.11-71.96,88.48-105.86,5.33-12.71-2.42,51.2-72.02,125.35Z"/>
    <polygon class="cls-1" points="492.23 766.62 505.36 758.76 512.6 774.11 499.12 781.59 492.23 766.62"/>
    <polygon class="cls-10" points="527.58 748.15 580.99 721.19 588.23 739.16 536.81 765.12 527.58 748.15"/>
    <polygon class="cls-23" points="607.28 709.63 767.35 632.42 775.67 649.06 615.6 726.6 607.28 709.63"/>
    <polygon class="cls-19" points="790.98 622.77 811.68 612.46 821.6 630.09 797.97 641.74 790.98 622.77"/>
    <path class="cls-20" d="M427.41,383.75c-6.99,0-14.31-3.49-13.14-13.98,0,0,11.81-14.48,22.62-7.16,10.82,7.32-2.49,21.13-9.48,21.13Z"/>
    <path class="cls-17" d="M663.85,458.71l45.85-21.55c-26.21-91.35-105.17-133.2-105.17-133.2-.5-35.44-6.48-50.91-25.46-77.37-18.96-26.45-99.25-73.54-99.25-73.54,0,0,.33,57.07,4.49,80.2,4.16,23.13,15.47,38.27,15.47,38.27-60.23,6.99-95.84,28.29-95.84,28.29-34.94,14.31-50.08,44.09-75.04,74.54-24.97,30.45-82.37,50.42-82.37,50.42,25.12,42.43,44.1,45.1,66.4,48.42,13.3,1.98,25.69-2.37,33.52-6.21,8.32-4.08,16.84-7.68,25.54-10.87,48.47-17.75,59.84-29.5,120.23-24.77,66.9,5.24,95.59,62.9,95.59,62.9l52.41-23.21c-49.42-104.08-143.76-107.07-143.76-107.07,123.54-27.71,167.39,94.76,167.39,94.76ZM467.5,354.79c-6.99,15.31-14.48,38.6-38.27,42.27-23.79,3.66-40.43,7.65-84.69,23.3,0,0,27.62-25.63,39.27-44.93,11.64-19.3,46.59-36.94,70.88-36.28,0,0,30.45-2.99,44.09-1.16,0,0-24.29,1.5-31.28,16.8ZM515.22,236.64c-9.23-13.73-10.23-48.17-10.23-48.17,3.74,7.49,28.2,30.45,28.2,30.45,31.95,46.42,8.98,79.87,8.98,79.87,2.99-11.48-7.24-25.95-10.24-30.45-2.99-4.49-7.49-17.97-16.73-31.69Z"/>
    <path class="cls-21" d="M427.41,383.75c-6.99,0-14.31-3.49-13.14-13.98,0,0,11.81-14.48,22.62-7.16,10.82,7.32-2.49,21.13-9.48,21.13Z"/>
    <path class="cls-11" d="M427.41,383.75c-6.99,0-14.31-3.49-13.14-13.98,0,0,11.81-14.48,22.62-7.16,10.82,7.32-2.49,21.13-9.48,21.13Z"/>
  </g>
</svg>